{
	"asset":{
		"generator":"Khronos glTF Blender I/O v4.1.63",
		"version":"2.0"
	},
	"extensionsUsed":[
		"KHR_materials_specular"
	],
	"scene":0,
	"scenes":[
		{
			"name":"Scene",
			"nodes":[
				0
			]
		}
	],
	"nodes":[
		{
			"mesh":0,
			"name":"Antena_tower_FBX",
			"rotation":[
				0.7071068286895752,
				0,
				0,
				0.7071068286895752
			],
			"scale":[
				0.19262784719467163,
				0.19262784719467163,
				0.19262784719467163
			]
		}
	],
	"materials":[
		{
			"doubleSided":true,
			"extensions":{
				"KHR_materials_specular":{
					"specularColorFactor":[
						2.0,
						2.0,
						2.0
					]
				}
			},
			"name":"Antena_tower_texture",
			"pbrMetallicRoughness":{
				"baseColorTexture":{
					"index":0
				},
				"metallicFactor":0,
				"roughnessFactor":0
			}
		}
	],
	"meshes":[
		{
			"name":"Antena_tower_FBX",
			"primitives":[
				{
					"attributes":{
						"POSITION":0,
						"NORMAL":1,
						"TEXCOORD_0":2
					},
					"indices":3,
					"material":0
				}
			]
		}
	],
	"textures":[
		{
			"sampler":0,
			"source":0
		}
	],
	"images":[
		{
			"mimeType":"image/jpeg",
			"name":"Antena_tower_diffuse",
			"uri":"Antena_tower_diffuse.jpg"
		}
	],
	"accessors":[
		{
			"bufferView":0,
			"componentType":5126,
			"count":100728,
			"max":[
				98.16143798828125,
				93.27288055419922,
				0.5007083415985107
			],
			"min":[
				-98.16144561767578,
				-93.27279663085938,
				-1513.0911865234375
			],
			"type":"VEC3"
		},
		{
			"bufferView":1,
			"componentType":5126,
			"count":100728,
			"type":"VEC3"
		},
		{
			"bufferView":2,
			"componentType":5126,
			"count":100728,
			"type":"VEC2"
		},
		{
			"bufferView":3,
			"componentType":5125,
			"count":186051,
			"type":"SCALAR"
		}
	],
	"bufferViews":[
		{
			"buffer":0,
			"byteLength":1208736,
			"byteOffset":0,
			"target":34962
		},
		{
			"buffer":0,
			"byteLength":1208736,
			"byteOffset":1208736,
			"target":34962
		},
		{
			"buffer":0,
			"byteLength":805824,
			"byteOffset":2417472,
			"target":34962
		},
		{
			"buffer":0,
			"byteLength":744204,
			"byteOffset":3223296,
			"target":34963
		}
	],
	"samplers":[
		{
			"magFilter":9729,
			"minFilter":9987
		}
	],
	"buffers":[
		{
			"byteLength":3967500,
			"uri":"antenna_textured.bin"
		}
	]
}
